<svg width="40" height="40" viewBox="0 0 40 40" fill="none" xmlns="http://www.w3.org/2000/svg">
<path fill-rule="evenodd" clip-rule="evenodd" d="M6.15805 31.4234C5.51839 32.0608 5.50379 33.1086 6.12543 33.7637C6.74708 34.4187 7.76957 34.433 8.40923 33.7955L19.9338 22.3105L31.5947 33.85C32.2366 34.4852 33.2591 34.4674 33.8784 33.8101C34.4978 33.1529 34.4795 32.1052 33.8376 31.47L22.2495 20.0026L33.765 8.52662C34.4047 7.88916 34.4193 6.84136 33.7976 6.18631C33.176 5.53126 32.1535 5.51701 31.5138 6.15448L19.9257 17.7029L8.40496 6.30223C7.76306 5.66702 6.74061 5.68486 6.12127 6.34208C5.50192 6.9993 5.5202 8.04703 6.1621 8.68225L17.6099 20.0108L6.15805 31.4234Z" fill="white"/>
</svg>

