<svg width="24" height="24" viewBox="0 0 24 24" fill="none" xmlns="http://www.w3.org/2000/svg">
<path fill-rule="evenodd" clip-rule="evenodd" d="M3.69488 18.854C3.31108 19.2365 3.30232 19.8651 3.67531 20.2582C4.0483 20.6512 4.66179 20.6597 5.04559 20.2773L11.9603 13.3862L18.9569 20.3099C19.342 20.6911 19.9555 20.6804 20.3271 20.286C20.6987 19.8917 20.6877 19.2631 20.3026 18.8819L13.3498 12.0015L20.259 5.11592C20.6428 4.73343 20.6516 4.10476 20.2786 3.71173C19.9056 3.3187 19.2921 3.31015 18.9083 3.69263L11.9554 10.6217L5.04302 3.78128C4.65788 3.40015 4.04442 3.41086 3.67281 3.80519C3.3012 4.19952 3.31217 4.82816 3.69731 5.20929L10.566 12.0064L3.69488 18.854Z" fill="#052CC2"/>
</svg>

