<svg width="24" height="24" viewBox="0 0 24 24" fill="none" xmlns="http://www.w3.org/2000/svg">
<path d="M7.68189 5.00005C6.74214 4.98485 5.82557 5.29219 5.08496 5.87085C4.34435 6.44951 3.82444 7.26453 3.61189 8.18005C3.39777 9.21903 3.60513 10.3005 4.18836 11.1866C4.77159 12.0727 5.68292 12.6909 6.72189 12.905L6.74889 12.91C7.0181 12.97 7.29308 13.0002 7.56889 13V19H9.56889V7.00005H11.5689V19H13.5689V7.00005H15.5689V5.00005H7.68189ZM5.53189 9.00005C5.53189 8.46962 5.7426 7.96091 6.11768 7.58584C6.49275 7.21076 7.00146 7.00005 7.53189 7.00005V11C7.00146 11 6.49275 10.7893 6.11768 10.4143C5.7426 10.0392 5.53189 9.53048 5.53189 9.00005ZM20.4719 17.491C20.4719 17.7877 20.3839 18.0777 20.2191 18.3244C20.0543 18.5711 19.82 18.7633 19.5459 18.8769C19.2718 18.9904 18.9702 19.0201 18.6793 18.9622C18.3883 18.9043 18.121 18.7615 17.9112 18.5517C17.7015 18.3419 17.5586 18.0747 17.5007 17.7837C17.4428 17.4927 17.4725 17.1911 17.5861 16.917C17.6996 16.6429 17.8919 16.4087 18.1385 16.2438C18.3852 16.079 18.6752 15.991 18.9719 15.991C19.3697 15.991 19.7512 16.1491 20.0325 16.4304C20.3139 16.7117 20.4719 17.0932 20.4719 17.491ZM20.4719 13.491C20.4719 13.7877 20.3839 14.0777 20.2191 14.3244C20.0543 14.5711 19.82 14.7633 19.5459 14.8769C19.2718 14.9904 18.9702 15.0201 18.6793 14.9622C18.3883 14.9044 18.121 14.7615 17.9112 14.5517C17.7015 14.3419 17.5586 14.0747 17.5007 13.7837C17.4428 13.4927 17.4725 13.1911 17.5861 12.917C17.6996 12.6429 17.8919 12.4087 18.1385 12.2438C18.3852 12.079 18.6752 11.991 18.9719 11.991C19.3697 11.991 19.7512 12.1491 20.0325 12.4304C20.3139 12.7117 20.4719 13.0932 20.4719 13.491ZM20.4719 9.49105C20.4719 9.78772 20.3839 10.0777 20.2191 10.3244C20.0543 10.5711 19.82 10.7633 19.5459 10.8769C19.2718 10.9904 18.9702 11.0201 18.6793 10.9622C18.3883 10.9043 18.121 10.7615 17.9112 10.5517C17.7015 10.3419 17.5586 10.0747 17.5007 9.78368C17.4428 9.49271 17.4725 9.19111 17.5861 8.91702C17.6996 8.64294 17.8919 8.40867 18.1385 8.24385C18.3852 8.07902 18.6752 7.99105 18.9719 7.99105C19.3697 7.99105 19.7512 8.14909 20.0325 8.43039C20.3139 8.71169 20.4719 9.09323 20.4719 9.49105Z" fill="black"/>
</svg>

