<svg width="24" height="24" viewBox="0 0 24 24" fill="none" xmlns="http://www.w3.org/2000/svg">
<path d="M11.5355 16.5V7.5H12.1179V16.5H11.5355ZM13.2152 10.3793C13.1821 10.0723 13.0424 9.8332 12.7962 9.66211C12.5523 9.49102 12.2351 9.40547 11.8445 9.40547C11.5698 9.40547 11.3343 9.44648 11.1378 9.52852C10.9413 9.61055 10.791 9.72187 10.6868 9.8625C10.5826 10.0031 10.5294 10.1637 10.527 10.3441C10.527 10.4941 10.5613 10.6242 10.63 10.7344C10.701 10.8445 10.7969 10.9383 10.9176 11.0156C11.0384 11.0906 11.1721 11.1539 11.3189 11.2055C11.4657 11.257 11.6136 11.3004 11.7628 11.3355L12.4446 11.5043C12.7192 11.5676 12.9832 11.6531 13.2365 11.7609C13.4922 11.8688 13.7206 12.0047 13.9219 12.1688C14.1255 12.3328 14.2865 12.5309 14.4048 12.7629C14.5232 12.9949 14.5824 13.2668 14.5824 13.5785C14.5824 14.0004 14.4735 14.3719 14.2557 14.693C14.0379 15.0117 13.723 15.2613 13.3111 15.4418C12.9015 15.6199 12.4055 15.709 11.8232 15.709C11.2573 15.709 10.7661 15.6223 10.3494 15.4488C9.93513 15.2754 9.6108 15.0223 9.37642 14.6895C9.14441 14.3566 9.01894 13.9512 9 13.473H10.2962C10.3151 13.7238 10.3932 13.9324 10.5305 14.0988C10.6679 14.2652 10.8466 14.3895 11.0668 14.4715C11.2893 14.5535 11.5379 14.5945 11.8125 14.5945C12.099 14.5945 12.3499 14.5523 12.5653 14.468C12.7831 14.3812 12.9536 14.2617 13.0767 14.1094C13.1998 13.9547 13.2625 13.7742 13.2649 13.568C13.2625 13.3805 13.2069 13.2258 13.098 13.1039C12.9891 12.9797 12.8364 12.8766 12.6399 12.7945C12.4458 12.7102 12.2185 12.6352 11.9581 12.5695L11.1307 12.3586C10.5317 12.2063 10.0582 11.9754 9.71023 11.666C9.36458 11.3543 9.19176 10.9406 9.19176 10.425C9.19176 10.0008 9.30777 9.6293 9.53977 9.31055C9.77415 8.9918 10.0926 8.74453 10.495 8.56875C10.8975 8.39063 11.3532 8.30156 11.8622 8.30156C12.3783 8.30156 12.8305 8.39063 13.2188 8.56875C13.6094 8.74453 13.916 8.98945 14.1385 9.30352C14.361 9.61523 14.4759 9.97383 14.483 10.3793H13.2152Z" fill="#828282"/>
<rect x="2.75" y="2.75" width="18.5" height="18.5" rx="5.25" stroke="#828282" stroke-width="1.5"/>
</svg>
